l<svg width="49" height="49" viewBox="0 0 49 49" fill="none" xmlns="http://www.w3.org/2000/svg">
<rect width="49" height="49" rx="6" fill="#0F0F0F"/>
<path d="M0 6C0 2.68629 2.68629 0 6 0H43C46.3137 0 49 2.68629 49 6V10H0V6Z" fill="#262626"/>
<path d="M7 5.5C7 5.89782 6.84196 6.27936 6.56066 6.56066C6.27936 6.84196 5.89782 7 5.5 7C5.10218 7 4.72064 6.84196 4.43934 6.56066C4.15804 6.27936 4 5.89782 4 5.5L4.525 5.5C4.525 5.75859 4.62772 6.00658 4.81057 6.18943C4.99342 6.37228 5.24141 6.475 5.5 6.475C5.75859 6.475 6.00658 6.37228 6.18943 6.18943C6.37228 6.00658 6.475 5.75859 6.475 5.5H7Z" fill="white"/>
<path d="M4 5.5C4 5.10218 4.15804 4.72064 4.43934 4.43934C4.72064 4.15804 5.10218 4 5.5 4C5.89782 4 6.27936 4.15804 6.56066 4.43934C6.84196 4.72064 7 5.10218 7 5.5L6.475 5.5C6.475 5.24141 6.37228 4.99342 6.18943 4.81057C6.00658 4.62772 5.75859 4.525 5.5 4.525C5.24141 4.525 4.99342 4.62772 4.81057 4.81057C4.62772 4.99342 4.525 5.24141 4.525 5.5H4Z" fill="white"/>
<path d="M11 5.5C11 5.89782 10.842 6.27936 10.5607 6.56066C10.2794 6.84196 9.89782 7 9.5 7C9.10218 7 8.72064 6.84196 8.43934 6.56066C8.15804 6.27936 8 5.89782 8 5.5L8.525 5.5C8.525 5.75859 8.62772 6.00658 8.81057 6.18943C8.99342 6.37228 9.24141 6.475 9.5 6.475C9.75859 6.475 10.0066 6.37228 10.1894 6.18943C10.3723 6.00658 10.475 5.75859 10.475 5.5H11Z" fill="white"/>
<path d="M8 5.5C8 5.10218 8.15804 4.72064 8.43934 4.43934C8.72064 4.15804 9.10218 4 9.5 4C9.89782 4 10.2794 4.15804 10.5607 4.43934C10.842 4.72064 11 5.10218 11 5.5L10.475 5.5C10.475 5.24141 10.3723 4.99342 10.1894 4.81057C10.0066 4.62772 9.75859 4.525 9.5 4.525C9.24141 4.525 8.99342 4.62772 8.81057 4.81057C8.62772 4.99342 8.525 5.24141 8.525 5.5H8Z" fill="white"/>
<path d="M15 5.5C15 5.89782 14.842 6.27936 14.5607 6.56066C14.2794 6.84196 13.8978 7 13.5 7C13.1022 7 12.7206 6.84196 12.4393 6.56066C12.158 6.27936 12 5.89782 12 5.5L12.525 5.5C12.525 5.75859 12.6277 6.00658 12.8106 6.18943C12.9934 6.37228 13.2414 6.475 13.5 6.475C13.7586 6.475 14.0066 6.37228 14.1894 6.18943C14.3723 6.00658 14.475 5.75859 14.475 5.5H15Z" fill="white"/>
<path d="M12 5.5C12 5.10218 12.158 4.72064 12.4393 4.43934C12.7206 4.15804 13.1022 4 13.5 4C13.8978 4 14.2794 4.15804 14.5607 4.43934C14.842 4.72064 15 5.10218 15 5.5L14.475 5.5C14.475 5.24141 14.3723 4.99342 14.1894 4.81057C14.0066 4.62772 13.7586 4.525 13.5 4.525C13.2414 4.525 12.9934 4.62772 12.8106 4.81057C12.6277 4.99342 12.525 5.24141 12.525 5.5H12Z" fill="white"/>
<rect x="5" y="13" width="12" height="3" rx="1.5" fill="#00FF2F"/>
<rect x="19" y="13" width="27" height="3" rx="1.5" fill="#B700FF"/>
<rect x="9" y="19" width="33" height="3" rx="1.5" fill="#FFFF00"/>
<rect x="12" y="25" width="6" height="3" rx="1.5" fill="#00FF2F"/>
<rect x="20" y="25" width="12" height="3" rx="1.5" fill="#B700FF"/>
<rect x="34" y="25" width="12" height="3" rx="1.5" fill="#FF0000"/>
<rect x="5" y="31" width="12" height="3" rx="1.5" fill="#FF0000"/>
<rect x="19" y="31" width="15" height="3" rx="1.5" fill="#00FF2F"/>
<rect x="11" y="37" width="35" height="3" rx="1.5" fill="#FFFF00"/>
<rect x="5" y="43" width="19" height="3" rx="1.5" fill="#00FF2F"/>
<path d="M34.6016 5.96378V4.92969L38.201 3.41832V4.54936L35.8246 5.43679L35.8619 5.3821V5.51385L35.8246 5.45668L38.201 6.34659V7.47514L34.6016 5.96378ZM41.5475 2.17045L39.9069 8.26562H38.8703L40.5109 2.17045H41.5475ZM45.8162 5.96378L42.2168 7.47514V6.34659L44.5932 5.45668L44.5584 5.51385V5.3821L44.5932 5.43679L42.2168 4.54936V3.41832L45.8162 4.92969V5.96378Z" fill="white"/>
</svg>
